<mxfile modified="2025-05-10T19:32:55.647Z" host="Electron" agent="Mozilla/5.0 (Windows NT 10.0; Win64; x64) AppleWebKit/537.36 (KHTML, like Gecko) draw.io/24.2.5 Chrome/120.0.6099.109 Electron/28.1.0 Safari/537.36" etag="tQHiYzT8iTMQyy5LNpj7" version="24.2.5" type="device">
  <diagram id="Ht1M8jgEwFfnCIfOTk4-" name="Page-1">
    <mxGraphModel dx="1714" dy="820" grid="1" gridSize="10" guides="1" tooltips="1" connect="1" arrows="1" fold="1" page="1" pageScale="1" pageWidth="1700" pageHeight="1100" math="0" shadow="0">
      <root>
        <mxCell id="0" />
        <mxCell id="1" parent="0" />
        <mxCell id="UEzPUAAOIrF-is8g5C7q-125" style="edgeStyle=orthogonalEdgeStyle;rounded=0;orthogonalLoop=1;jettySize=auto;html=1;startArrow=open;startFill=0;endArrow=open;endFill=0;strokeWidth=2;strokeColor=#808080;" parent="1" edge="1">
          <mxGeometry relative="1" as="geometry">
            <Array as="points">
              <mxPoint x="530.5" y="101.5" />
              <mxPoint x="530.5" y="101.5" />
            </Array>
            <mxPoint x="568.5" y="101.5" as="targetPoint" />
          </mxGeometry>
        </mxCell>
        <mxCell id="UEzPUAAOIrF-is8g5C7q-137" value="" style="edgeStyle=orthogonalEdgeStyle;rounded=0;orthogonalLoop=1;jettySize=auto;html=1;startArrow=none;startFill=0;endArrow=open;endFill=0;strokeWidth=2;strokeColor=#808080;" parent="1" edge="1">
          <mxGeometry relative="1" as="geometry">
            <mxPoint x="878.5" y="162.5" as="sourcePoint" />
          </mxGeometry>
        </mxCell>
        <mxCell id="pGj4vVrnikJ0OJPTIS5E-25" value="" style="edgeStyle=orthogonalEdgeStyle;rounded=0;orthogonalLoop=1;jettySize=auto;html=1;" edge="1" parent="1" source="UEzPUAAOIrF-is8g5C7q-115" target="pGj4vVrnikJ0OJPTIS5E-2">
          <mxGeometry relative="1" as="geometry" />
        </mxCell>
        <mxCell id="UEzPUAAOIrF-is8g5C7q-115" value="Request Service" style="outlineConnect=0;fontColor=#232F3E;gradientColor=none;fillColor=#D05C17;strokeColor=none;dashed=0;verticalLabelPosition=bottom;verticalAlign=top;align=center;html=1;fontSize=12;fontStyle=0;aspect=fixed;pointerEvents=1;shape=mxgraph.aws4.lambda_function;labelBackgroundColor=#ffffff;" parent="1" vertex="1">
          <mxGeometry x="760" y="160" width="78" height="78" as="geometry" />
        </mxCell>
        <mxCell id="pGj4vVrnikJ0OJPTIS5E-30" value="" style="edgeStyle=orthogonalEdgeStyle;rounded=0;orthogonalLoop=1;jettySize=auto;html=1;" edge="1" parent="1" source="UEzPUAAOIrF-is8g5C7q-119" target="NBBE8MqZyisiHS21P6mt-7">
          <mxGeometry relative="1" as="geometry" />
        </mxCell>
        <mxCell id="UEzPUAAOIrF-is8g5C7q-119" value="Amazon&lt;br&gt;DynamoDB&lt;br&gt;" style="outlineConnect=0;fontColor=#232F3E;gradientColor=#4D72F3;gradientDirection=north;fillColor=#3334B9;strokeColor=#ffffff;dashed=0;verticalLabelPosition=bottom;verticalAlign=top;align=center;html=1;fontSize=12;fontStyle=0;aspect=fixed;shape=mxgraph.aws4.resourceIcon;resIcon=mxgraph.aws4.dynamodb;labelBackgroundColor=#ffffff;spacingTop=5;" parent="1" vertex="1">
          <mxGeometry x="760.0000000000002" y="289.5" width="78" height="78" as="geometry" />
        </mxCell>
        <mxCell id="pGj4vVrnikJ0OJPTIS5E-26" value="" style="edgeStyle=orthogonalEdgeStyle;rounded=0;orthogonalLoop=1;jettySize=auto;html=1;" edge="1" parent="1" source="NBBE8MqZyisiHS21P6mt-3" target="UEzPUAAOIrF-is8g5C7q-115">
          <mxGeometry relative="1" as="geometry" />
        </mxCell>
        <mxCell id="NBBE8MqZyisiHS21P6mt-3" value="Github" style="dashed=0;outlineConnect=0;html=1;align=center;labelPosition=center;verticalLabelPosition=bottom;verticalAlign=top;shape=mxgraph.weblogos.github" parent="1" vertex="1">
          <mxGeometry x="605" y="161.5" width="75" height="75" as="geometry" />
        </mxCell>
        <mxCell id="pGj4vVrnikJ0OJPTIS5E-21" value="" style="edgeStyle=orthogonalEdgeStyle;rounded=0;orthogonalLoop=1;jettySize=auto;html=1;" edge="1" parent="1" source="NBBE8MqZyisiHS21P6mt-4" target="pGj4vVrnikJ0OJPTIS5E-14">
          <mxGeometry relative="1" as="geometry" />
        </mxCell>
        <mxCell id="pGj4vVrnikJ0OJPTIS5E-23" value="" style="edgeStyle=orthogonalEdgeStyle;rounded=0;orthogonalLoop=1;jettySize=auto;html=1;" edge="1" parent="1" source="NBBE8MqZyisiHS21P6mt-4" target="pGj4vVrnikJ0OJPTIS5E-3">
          <mxGeometry relative="1" as="geometry" />
        </mxCell>
        <mxCell id="pGj4vVrnikJ0OJPTIS5E-29" value="" style="edgeStyle=orthogonalEdgeStyle;rounded=0;orthogonalLoop=1;jettySize=auto;html=1;" edge="1" parent="1" source="NBBE8MqZyisiHS21P6mt-4" target="UEzPUAAOIrF-is8g5C7q-119">
          <mxGeometry relative="1" as="geometry" />
        </mxCell>
        <mxCell id="NBBE8MqZyisiHS21P6mt-4" value="Review Service" style="outlineConnect=0;fontColor=#232F3E;gradientColor=none;fillColor=#D05C17;strokeColor=none;dashed=0;verticalLabelPosition=bottom;verticalAlign=top;align=center;html=1;fontSize=12;fontStyle=0;aspect=fixed;pointerEvents=1;shape=mxgraph.aws4.lambda_function;labelBackgroundColor=#ffffff;" parent="1" vertex="1">
          <mxGeometry x="920" y="289.5" width="78" height="78" as="geometry" />
        </mxCell>
        <mxCell id="pGj4vVrnikJ0OJPTIS5E-31" value="" style="edgeStyle=orthogonalEdgeStyle;rounded=0;orthogonalLoop=1;jettySize=auto;html=1;" edge="1" parent="1" source="NBBE8MqZyisiHS21P6mt-7" target="pGj4vVrnikJ0OJPTIS5E-17">
          <mxGeometry relative="1" as="geometry" />
        </mxCell>
        <mxCell id="NBBE8MqZyisiHS21P6mt-7" value="Notifications Service" style="sketch=0;points=[[0,0,0],[0.25,0,0],[0.5,0,0],[0.75,0,0],[1,0,0],[0,1,0],[0.25,1,0],[0.5,1,0],[0.75,1,0],[1,1,0],[0,0.25,0],[0,0.5,0],[0,0.75,0],[1,0.25,0],[1,0.5,0],[1,0.75,0]];outlineConnect=0;fontColor=#232F3E;fillColor=#ED7100;strokeColor=#ffffff;dashed=0;verticalLabelPosition=bottom;verticalAlign=top;align=center;html=1;fontSize=12;fontStyle=0;aspect=fixed;shape=mxgraph.aws4.resourceIcon;resIcon=mxgraph.aws4.fargate;" parent="1" vertex="1">
          <mxGeometry x="760" y="450" width="78" height="78" as="geometry" />
        </mxCell>
        <mxCell id="pGj4vVrnikJ0OJPTIS5E-22" value="" style="edgeStyle=orthogonalEdgeStyle;rounded=0;orthogonalLoop=1;jettySize=auto;html=1;" edge="1" parent="1" source="pGj4vVrnikJ0OJPTIS5E-2" target="NBBE8MqZyisiHS21P6mt-4">
          <mxGeometry relative="1" as="geometry" />
        </mxCell>
        <mxCell id="pGj4vVrnikJ0OJPTIS5E-2" value="Request Topic" style="sketch=0;points=[[0,0,0],[0.25,0,0],[0.5,0,0],[0.75,0,0],[1,0,0],[0,1,0],[0.25,1,0],[0.5,1,0],[0.75,1,0],[1,1,0],[0,0.25,0],[0,0.5,0],[0,0.75,0],[1,0.25,0],[1,0.5,0],[1,0.75,0]];outlineConnect=0;fontColor=#232F3E;fillColor=#E7157B;strokeColor=#ffffff;dashed=0;verticalLabelPosition=bottom;verticalAlign=top;align=center;html=1;fontSize=12;fontStyle=0;aspect=fixed;shape=mxgraph.aws4.resourceIcon;resIcon=mxgraph.aws4.sns;" vertex="1" parent="1">
          <mxGeometry x="920" y="160" width="78" height="78" as="geometry" />
        </mxCell>
        <mxCell id="pGj4vVrnikJ0OJPTIS5E-24" value="" style="edgeStyle=orthogonalEdgeStyle;rounded=0;orthogonalLoop=1;jettySize=auto;html=1;" edge="1" parent="1" source="pGj4vVrnikJ0OJPTIS5E-3" target="NBBE8MqZyisiHS21P6mt-7">
          <mxGeometry relative="1" as="geometry" />
        </mxCell>
        <mxCell id="pGj4vVrnikJ0OJPTIS5E-3" value="Review Topic" style="sketch=0;points=[[0,0,0],[0.25,0,0],[0.5,0,0],[0.75,0,0],[1,0,0],[0,1,0],[0.25,1,0],[0.5,1,0],[0.75,1,0],[1,1,0],[0,0.25,0],[0,0.5,0],[0,0.75,0],[1,0.25,0],[1,0.5,0],[1,0.75,0]];outlineConnect=0;fontColor=#232F3E;fillColor=#E7157B;strokeColor=#ffffff;dashed=0;verticalLabelPosition=bottom;verticalAlign=top;align=center;html=1;fontSize=12;fontStyle=0;aspect=fixed;shape=mxgraph.aws4.resourceIcon;resIcon=mxgraph.aws4.sns;" vertex="1" parent="1">
          <mxGeometry x="920" y="450" width="78" height="78" as="geometry" />
        </mxCell>
        <mxCell id="pGj4vVrnikJ0OJPTIS5E-9" value="Review Reviewer" style="shape=umlActor;verticalLabelPosition=bottom;verticalAlign=top;html=1;outlineConnect=0;" vertex="1" parent="1">
          <mxGeometry x="510" y="459" width="30" height="60" as="geometry" />
        </mxCell>
        <mxCell id="pGj4vVrnikJ0OJPTIS5E-27" value="" style="edgeStyle=orthogonalEdgeStyle;rounded=0;orthogonalLoop=1;jettySize=auto;html=1;" edge="1" parent="1" source="pGj4vVrnikJ0OJPTIS5E-10" target="NBBE8MqZyisiHS21P6mt-3">
          <mxGeometry relative="1" as="geometry" />
        </mxCell>
        <mxCell id="pGj4vVrnikJ0OJPTIS5E-10" value="SDE" style="shape=umlActor;verticalLabelPosition=bottom;verticalAlign=top;html=1;outlineConnect=0;" vertex="1" parent="1">
          <mxGeometry x="510" y="169" width="30" height="60" as="geometry" />
        </mxCell>
        <mxCell id="pGj4vVrnikJ0OJPTIS5E-14" value="Anthropic Sonnet 3.7" style="shape=image;imageAspect=0;aspect=fixed;verticalLabelPosition=bottom;verticalAlign=top;image=https://th.bing.com/th/id/R.c33b748a175e7e64610f3183b87d30b3?rik=NquYwMZx8bFdFg&amp;riu=http%3a%2f%2fbeaiware.pl%2fwp-content%2fuploads%2f2024%2f10%2fanthropic-claude-3.5-sonnet-ai-artificial-intelligence-model-benchmarks.jpg&amp;ehk=moTBKskJvGE4zEc%2b1Tt6qM5PKY3paDY0YPxlo%2fU7tnU%3d&amp;risl=&amp;pid=ImgRaw&amp;r=0;" vertex="1" parent="1">
          <mxGeometry x="1078.71" y="288.5" width="120.58" height="80" as="geometry" />
        </mxCell>
        <mxCell id="pGj4vVrnikJ0OJPTIS5E-28" value="" style="edgeStyle=orthogonalEdgeStyle;rounded=0;orthogonalLoop=1;jettySize=auto;html=1;" edge="1" parent="1" source="pGj4vVrnikJ0OJPTIS5E-17" target="pGj4vVrnikJ0OJPTIS5E-9">
          <mxGeometry relative="1" as="geometry" />
        </mxCell>
        <mxCell id="pGj4vVrnikJ0OJPTIS5E-17" value="Reviewer Page" style="verticalLabelPosition=bottom;aspect=fixed;html=1;shape=mxgraph.salesforce.web;" vertex="1" parent="1">
          <mxGeometry x="620" y="465.3" width="60" height="47.400000000000006" as="geometry" />
        </mxCell>
        <mxCell id="pGj4vVrnikJ0OJPTIS5E-32" value="2. Github Workflow&lt;br&gt;triggered" style="text;strokeColor=none;align=center;fillColor=none;html=1;verticalAlign=middle;whiteSpace=wrap;rounded=0;" vertex="1" parent="1">
          <mxGeometry x="577.5" y="120" width="130" height="30" as="geometry" />
        </mxCell>
        <mxCell id="pGj4vVrnikJ0OJPTIS5E-33" value="1. Reviewer Opens PR" style="text;strokeColor=none;align=center;fillColor=none;html=1;verticalAlign=middle;whiteSpace=wrap;rounded=0;" vertex="1" parent="1">
          <mxGeometry x="440" y="120" width="130" height="30" as="geometry" />
        </mxCell>
        <mxCell id="pGj4vVrnikJ0OJPTIS5E-34" value="3. Workflow calls Request Service" style="text;strokeColor=none;align=center;fillColor=none;html=1;verticalAlign=middle;whiteSpace=wrap;rounded=0;" vertex="1" parent="1">
          <mxGeometry x="720" y="120" width="130" height="30" as="geometry" />
        </mxCell>
        <mxCell id="pGj4vVrnikJ0OJPTIS5E-35" value="4. Request Service Publishes to SNS" style="text;strokeColor=none;align=center;fillColor=none;html=1;verticalAlign=middle;whiteSpace=wrap;rounded=0;" vertex="1" parent="1">
          <mxGeometry x="894" y="120" width="156" height="30" as="geometry" />
        </mxCell>
        <mxCell id="pGj4vVrnikJ0OJPTIS5E-36" value="5. The Review Service&lt;div&gt;* Gets details from Github&lt;br&gt;&lt;div style=&quot;&quot;&gt;&lt;span style=&quot;background-color: initial;&quot;&gt;* Submits to LLM for Review&lt;br&gt;* Stores review in DDB&lt;br&gt;* Publishes SNS message&lt;/span&gt;&lt;/div&gt;&lt;/div&gt;" style="text;strokeColor=none;align=left;fillColor=none;html=1;verticalAlign=middle;whiteSpace=wrap;rounded=0;" vertex="1" parent="1">
          <mxGeometry x="1043.29" y="400" width="156" height="90" as="geometry" />
        </mxCell>
        <mxCell id="pGj4vVrnikJ0OJPTIS5E-40" value="" style="edgeStyle=orthogonalEdgeStyle;rounded=0;orthogonalLoop=1;jettySize=auto;html=1;" edge="1" parent="1" source="NBBE8MqZyisiHS21P6mt-4" target="NBBE8MqZyisiHS21P6mt-3">
          <mxGeometry relative="1" as="geometry">
            <mxPoint x="930" y="339" as="sourcePoint" />
            <mxPoint x="848" y="339" as="targetPoint" />
            <Array as="points">
              <mxPoint x="959" y="280" />
              <mxPoint x="643" y="280" />
            </Array>
          </mxGeometry>
        </mxCell>
        <mxCell id="pGj4vVrnikJ0OJPTIS5E-42" value="6. The Notifications Service&lt;div&gt;* Receives Review SNS message&lt;br&gt;* Pushes new Review to the Reviewer page via websockets.&lt;br&gt;* GET API for the UI to load open PRs at startup&lt;/div&gt;" style="text;strokeColor=none;align=left;fillColor=none;html=1;verticalAlign=middle;whiteSpace=wrap;rounded=0;" vertex="1" parent="1">
          <mxGeometry x="760" y="570" width="326" height="100" as="geometry" />
        </mxCell>
        <mxCell id="pGj4vVrnikJ0OJPTIS5E-44" value="" style="endArrow=none;dashed=1;html=1;dashPattern=1 3;strokeWidth=2;rounded=0;exitX=0.123;exitY=0.1;exitDx=0;exitDy=0;exitPerimeter=0;" edge="1" parent="1" source="pGj4vVrnikJ0OJPTIS5E-42">
          <mxGeometry width="50" height="50" relative="1" as="geometry">
            <mxPoint x="750" y="575" as="sourcePoint" />
            <mxPoint x="800" y="525" as="targetPoint" />
          </mxGeometry>
        </mxCell>
        <mxCell id="pGj4vVrnikJ0OJPTIS5E-45" value="Amazon Bedrock with Vector Store" style="sketch=0;points=[[0,0,0],[0.25,0,0],[0.5,0,0],[0.75,0,0],[1,0,0],[0,1,0],[0.25,1,0],[0.5,1,0],[0.75,1,0],[1,1,0],[0,0.25,0],[0,0.5,0],[0,0.75,0],[1,0.25,0],[1,0.5,0],[1,0.75,0]];outlineConnect=0;fontColor=#232F3E;fillColor=#01A88D;strokeColor=#ffffff;dashed=0;verticalLabelPosition=bottom;verticalAlign=top;align=center;html=1;fontSize=12;fontStyle=0;aspect=fixed;shape=mxgraph.aws4.resourceIcon;resIcon=mxgraph.aws4.bedrock;" vertex="1" parent="1">
          <mxGeometry x="1078.71" y="151.5" width="78" height="78" as="geometry" />
        </mxCell>
        <mxCell id="pGj4vVrnikJ0OJPTIS5E-49" value="" style="edgeStyle=orthogonalEdgeStyle;rounded=0;orthogonalLoop=1;jettySize=auto;html=1;" edge="1" parent="1" source="pGj4vVrnikJ0OJPTIS5E-48" target="pGj4vVrnikJ0OJPTIS5E-45">
          <mxGeometry relative="1" as="geometry" />
        </mxCell>
        <mxCell id="pGj4vVrnikJ0OJPTIS5E-48" value="Google Style Guides" style="outlineConnect=0;dashed=0;verticalLabelPosition=bottom;verticalAlign=top;align=center;html=1;shape=mxgraph.aws3.documents;fillColor=#759C3E;gradientColor=none;" vertex="1" parent="1">
          <mxGeometry x="1258.71" y="140" width="90" height="100.5" as="geometry" />
        </mxCell>
        <mxCell id="pGj4vVrnikJ0OJPTIS5E-52" value="" style="endArrow=none;dashed=1;html=1;dashPattern=1 3;strokeWidth=2;rounded=0;" edge="1" parent="1" source="NBBE8MqZyisiHS21P6mt-4" target="pGj4vVrnikJ0OJPTIS5E-36">
          <mxGeometry width="50" height="50" relative="1" as="geometry">
            <mxPoint x="1090" y="450" as="sourcePoint" />
            <mxPoint x="1140" y="400" as="targetPoint" />
          </mxGeometry>
        </mxCell>
        <mxCell id="pGj4vVrnikJ0OJPTIS5E-53" value="" style="endArrow=none;dashed=1;html=1;dashPattern=1 3;strokeWidth=2;rounded=0;" edge="1" parent="1" source="NBBE8MqZyisiHS21P6mt-4" target="pGj4vVrnikJ0OJPTIS5E-45">
          <mxGeometry width="50" height="50" relative="1" as="geometry">
            <mxPoint x="1090" y="450" as="sourcePoint" />
            <mxPoint x="1140" y="400" as="targetPoint" />
          </mxGeometry>
        </mxCell>
        <mxCell id="pGj4vVrnikJ0OJPTIS5E-54" value="&lt;font color=&quot;#ff3333&quot;&gt;REMOVED&lt;/font&gt;" style="edgeLabel;html=1;align=center;verticalAlign=middle;resizable=0;points=[];" vertex="1" connectable="0" parent="pGj4vVrnikJ0OJPTIS5E-53">
          <mxGeometry x="-0.2682" y="4" relative="1" as="geometry">
            <mxPoint as="offset" />
          </mxGeometry>
        </mxCell>
      </root>
    </mxGraphModel>
  </diagram>
</mxfile>
